HIERARCHY
ROOT Hips
{
	OFFSET -0.001795 -0.223333 0.028219
	CHANNELS 6 Xposition Yposition Zposition Zrotation Yrotation Xrotation 
	JOINT LeftUpLeg
	{
		OFFSET 0.069520 -0.091406 -0.006815
		CHANNELS 3 Zrotation Yrotation Xrotation
		JOINT LeftLeg
		{
			OFFSET 0.034277 -0.375199 -0.004496
			CHANNELS 3 Zrotation Yrotation Xrotation
			JOINT LeftFoot
			{
				OFFSET -0.013596 -0.397961 -0.043693
				CHANNELS 3 Zrotation Yrotation Xrotation
				JOINT LeftToe
				{
					OFFSET 0.026358 -0.055791 0.119288
					CHANNELS 3 Zrotation Yrotation Xrotation
					End Site
					{
						OFFSET 0.000000 0.000000 0.000000
					}
				}
			}
		}
	}
	JOINT RightUpLeg
	{
		OFFSET -0.067670 -0.090522 -0.004320
		CHANNELS 3 Zrotation Yrotation Xrotation
		JOINT RightLeg
		{
			OFFSET -0.038290 -0.382569 -0.008850
			CHANNELS 3 Zrotation Yrotation Xrotation
			JOINT RightFoot
			{
				OFFSET 0.015774 -0.398415 -0.042312
				CHANNELS 3 Zrotation Yrotation Xrotation
				JOINT RightToe
				{
					OFFSET -0.025372 -0.048144 0.123348
					CHANNELS 3 Zrotation Yrotation Xrotation
					End Site
					{
						OFFSET 0.000000 0.000000 0.000000
					}
				}
			}
		}
	}
	JOINT Spine
	{
		OFFSET -0.002533 0.108963 -0.026696
		CHANNELS 3 Zrotation Yrotation Xrotation
		JOINT Spine1
		{
			OFFSET 0.005487 0.135180 0.001092
			CHANNELS 3 Zrotation Yrotation Xrotation
			JOINT Spine2
			{
				OFFSET 0.001457 0.052922 0.025425
				CHANNELS 3 Zrotation Yrotation Xrotation
				JOINT Neck
				{
					OFFSET -0.002778 0.213870 -0.042857
					CHANNELS 3 Zrotation Yrotation Xrotation
					JOINT Head
					{
						OFFSET 0.005152 0.064970 0.051349
						CHANNELS 3 Zrotation Yrotation Xrotation
						End Site
						{
							OFFSET 0.000000 0.000000 0.000000
						}
					}
				}
				JOINT LeftShoulder
				{
					OFFSET 0.078845 0.121749 -0.034090
					CHANNELS 3 Zrotation Yrotation Xrotation
					JOINT LeftArm
					{
						OFFSET 0.090977 0.030469 -0.008868
						CHANNELS 3 Zrotation Yrotation Xrotation
						JOINT LeftForeArm
						{
							OFFSET 0.259612 -0.012772 -0.027456
							CHANNELS 3 Zrotation Yrotation Xrotation
							JOINT LeftHand
							{
								OFFSET 0.249234 0.008986 -0.001171
								CHANNELS 3 Zrotation Yrotation Xrotation
								End Site
								{
									OFFSET 0.000000 0.000000 0.000000
								}
							}
						}
					}
				}
				JOINT RightShoulder
				{
					OFFSET -0.081759 0.118833 -0.038615
					CHANNELS 3 Zrotation Yrotation Xrotation
					JOINT RightArm
					{
						OFFSET -0.096012 0.032551 -0.009143
						CHANNELS 3 Zrotation Yrotation Xrotation
						JOINT RightForeArm
						{
							OFFSET -0.253742 -0.013329 -0.021401
							CHANNELS 3 Zrotation Yrotation Xrotation
							JOINT RightHand
							{
								OFFSET -0.255298 0.007772 -0.005559
								CHANNELS 3 Zrotation Yrotation Xrotation
								End Site
								{
									OFFSET 0.000000 0.000000 0.000000
								}
							}
						}
					}
				}
			}
		}
	}
}
MOTION
Frames: 16
Frame Time: 0.050000
0.061088 0.949971 -0.022802 -1.975895 -2.388066 9.915781 6.696910 -0.568578 -12.171454 4.027071 -0.712209 4.067358 -3.263527 -1.852075 10.445549 0.000000 0.000000 0.000000 -0.475368 1.225504 -12.292038 -8.111730 0.886853 0.714284 4.420071 2.188096 14.123585 0.000000 0.000000 0.000000 1.939291 -0.297180 3.677049 -3.500753 1.624042 -0.646382 -9.337484 14.685610 -1.956511 17.581976 -5.848752 -22.957201 0.000000 0.000000 0.000000 -2.803202 -28.654103 8.795214 -55.840950 -36.307026 10.309410 8.031921 -18.220962 -1.052644 0.000000 0.000000 0.000000 7.448962 24.720972 12.806533 70.633902 42.881984 24.975969 -6.978454 23.593962 -0.415917 0.000000 0.000000 0.000000 
0.060243 0.951823 -0.025666 -2.308260 -2.553015 10.085992 7.338608 -0.516918 -12.186869 3.631007 -0.622021 3.542349 -3.320893 -1.688537 11.130302 0.000000 0.000000 0.000000 0.151791 1.276671 -12.428424 -7.611706 0.766256 0.121519 3.526397 0.033712 15.039441 0.000000 0.000000 0.000000 1.883286 -0.324558 4.200604 -3.740704 1.748557 0.069723 -9.495214 16.372544 -2.724279 18.430662 -6.421960 -22.052347 0.000000 0.000000 0.000000 0.485569 -31.353641 9.519647 -49.298343 -43.594494 11.404513 14.881203 -17.759958 -2.267284 0.000000 0.000000 0.000000 3.347439 29.592597 14.040382 68.614172 55.363537 34.536998 -14.696446 18.657524 -1.518073 0.000000 0.000000 0.000000 
0.059933 0.952470 -0.026619 -2.189217 -2.692698 10.092246 7.439682 -0.515189 -12.660456 3.230832 -0.609565 4.282983 -3.299278 -1.583424 11.329845 0.000000 0.000000 0.000000 -0.234833 1.269355 -12.557309 -6.009221 0.598356 0.085273 2.018543 -2.777674 15.103089 0.000000 0.000000 0.000000 1.736541 -0.373951 5.292617 -3.930841 1.811611 -0.987949 -10.211288 18.724866 -2.809060 19.149293 -6.760572 -21.649375 0.000000 0.000000 0.000000 3.552669 -33.346527 9.894756 -40.633705 -49.719223 10.004599 23.910382 -16.932731 -3.972392 0.000000 0.000000 0.000000 -1.257952 33.306002 14.288257 60.736592 68.267071 40.676761 -21.938959 10.300107 -1.320866 0.000000 0.000000 0.000000 
0.059849 0.952415 -0.025904 -2.404430 -2.000720 10.273782 7.244318 -0.568440 -13.353998 4.105965 -0.780823 4.949066 -3.555432 -1.990341 11.207164 0.000000 0.000000 0.000000 0.097645 1.260206 -12.330686 -5.125414 0.462346 -0.513725 0.350256 -5.744624 15.318428 0.000000 0.000000 0.000000 2.057714 -0.414903 5.434453 -4.510008 2.083523 -0.525530 -10.320553 20.475611 -3.558909 20.633483 -7.994508 -20.156624 0.000000 0.000000 0.000000 6.477179 -35.362680 10.278341 -31.112078 -55.131008 6.772084 32.870826 -13.680970 -5.028661 0.000000 0.000000 0.000000 -5.319523 35.834373 13.974450 33.348767 76.668630 26.412413 -26.328077 0.781062 0.260041 0.000000 0.000000 0.000000 
0.059796 0.951986 -0.023962 -2.341664 -0.749434 10.084084 7.266469 -0.602249 -13.447596 4.143084 -0.797541 5.122474 -4.118110 -2.891082 11.018897 0.000000 0.000000 0.000000 -0.449365 1.117555 -11.271603 -3.657399 0.237966 -1.791766 -0.927763 -7.938258 15.887121 0.000000 0.000000 0.000000 1.906346 -0.437926 6.026247 -4.586182 2.099447 -1.116429 -10.444444 21.972257 -3.839559 21.097118 -8.436177 -19.327264 0.000000 0.000000 0.000000 10.824544 -35.319092 10.170511 -20.227417 -60.365914 0.860963 38.728475 -9.977483 -5.014474 0.000000 0.000000 0.000000 -7.884554 37.555166 13.832717 -4.054046 78.437281 -1.621311 -27.050324 -8.915955 2.296667 0.000000 0.000000 0.000000 
0.059740 0.950629 -0.021693 -2.252230 1.087843 10.085196 7.353055 -0.658208 -13.849971 4.128889 -0.803187 5.254845 -4.888605 -4.206901 10.638243 0.000000 0.000000 0.000000 -0.395041 1.029896 -10.419406 -3.713055 0.196063 -2.584725 -1.851672 -9.226048 15.826347 0.000000 0.000000 0.000000 2.030710 -0.441126 5.781007 -4.766330 2.177538 -0.963411 -10.144182 22.575034 -4.073072 20.593583 -8.073175 -19.089563 0.000000 0.000000 0.000000 11.274037 -35.685570 10.271729 -11.690322 -61.755493 -4.128803 40.760658 -7.950511 -4.659034 0.000000 0.000000 0.000000 -7.251382 38.615420 14.797892 -19.966752 76.429655 -13.530595 -26.830594 -12.488732 3.037639 0.000000 0.000000 0.000000 
0.060040 0.949256 -0.019436 -2.510943 2.219658 10.279058 7.469037 -0.688356 -13.974733 4.600142 -0.841936 4.863538 -5.276928 -5.004593 10.194244 0.000000 0.000000 0.000000 -0.416356 1.014511 -10.301077 -3.070795 0.145526 -2.652782 -2.455598 -10.059170 15.631329 0.000000 0.000000 0.000000 2.202090 -0.431191 5.272416 -5.124445 2.328903 -1.073552 -9.381712 23.180274 -4.111632 21.406691 -8.599889 -18.948319 0.000000 0.000000 0.000000 9.596014 -35.727844 10.290658 -9.431726 -60.463788 -5.034587 40.341184 -10.468941 -5.535178 0.000000 0.000000 0.000000 -4.137513 38.568466 16.451022 -22.311958 76.848774 -15.858196 -26.259150 -12.981149 3.070476 0.000000 0.000000 0.000000 
0.060953 0.947680 -0.017208 -2.609257 3.263812 10.436333 7.659017 -0.720255 -14.462906 4.543293 -0.857978 5.204237 -5.592649 -5.771638 9.648699 0.000000 0.000000 0.000000 -0.332563 1.007532 -10.219452 -2.998456 0.148784 -2.594576 -3.037365 -10.871206 15.355402 0.000000 0.000000 0.000000 2.231147 -0.407659 4.799540 -4.949215 2.248569 -0.861891 -9.073087 23.250103 -4.537951 20.446516 -7.772030 -19.276759 0.000000 0.000000 0.000000 6.083124 -35.266133 10.106356 -11.018005 -58.095248 -3.286700 38.770150 -13.975267 -6.548417 0.000000 0.000000 0.000000 0.627888 38.597279 19.052662 -15.984152 77.159407 -11.998846 -26.292279 -10.454166 2.584276 0.000000 0.000000 0.000000 
0.062669 0.946564 -0.014810 -2.338244 4.378809 10.401093 7.286065 -0.778880 -14.408771 4.662383 -0.854957 4.969750 -6.039783 -6.655954 9.325505 0.000000 0.000000 0.000000 -0.553952 0.964856 -9.911801 -3.159605 0.177504 -2.458999 -3.664901 -11.771131 15.130692 0.000000 0.000000 0.000000 2.488740 -0.392876 4.218351 -5.101400 2.305559 -1.406009 -8.448338 22.947683 -3.702453 20.125146 -7.586652 -19.251008 0.000000 0.000000 0.000000 2.719643 -34.941453 9.894318 -15.201387 -55.429770 -0.482614 36.893319 -18.209752 -7.656688 0.000000 0.000000 0.000000 3.675873 36.617736 19.581597 4.363204 78.599680 3.228217 -26.989681 -5.615404 1.672090 0.000000 0.000000 0.000000 
0.064823 0.945624 -0.012398 -1.996374 5.090180 10.387869 6.786021 -0.839084 -14.518518 4.750694 -0.885517 5.197627 -6.291382 -7.251884 8.992587 0.000000 0.000000 0.000000 -0.909735 0.905230 -9.444981 -3.312617 0.177287 -2.711724 -4.065918 -12.355878 15.001799 0.000000 0.000000 0.000000 2.617671 -0.315437 2.904904 -4.792312 2.170138 -1.097078 -8.343539 22.461751 -3.735094 18.839048 -6.884973 -18.946420 0.000000 0.000000 0.000000 0.777611 -33.058197 9.242262 -19.248779 -53.357545 1.714949 34.506556 -21.236417 -8.173502 0.000000 0.000000 0.000000 7.068385 33.764363 19.774683 31.789434 78.364609 24.512236 -27.737855 -0.525167 0.697225 0.000000 0.000000 0.000000 
0.067193 0.945027 -0.010104 -1.719119 5.334866 10.232101 6.454367 -0.838696 -13.870432 4.576222 -0.809033 4.574150 -6.389710 -7.545576 8.764195 0.000000 0.000000 0.000000 -1.245876 0.862504 -9.136428 -3.459408 0.204298 -2.532448 -4.241789 -12.606307 14.794307 0.000000 0.000000 0.000000 3.073418 -0.263791 1.731374 -4.710898 2.135041 -1.491970 -8.106458 21.826655 -2.991776 17.872349 -6.511454 -18.444727 0.000000 0.000000 0.000000 -1.361681 -30.750634 8.398360 -22.269906 -51.708688 3.293417 32.491916 -23.285622 -8.306147 0.000000 0.000000 0.000000 8.489758 30.270428 18.422621 57.745991 74.624128 42.907571 -29.798915 5.817865 -0.550747 0.000000 0.000000 0.000000 
0.069573 0.944788 -0.008105 -1.145883 5.843076 10.200384 6.346400 -0.837371 -13.423008 3.478659 -0.609376 3.954341 -6.707067 -8.018369 8.866652 0.000000 0.000000 0.000000 -1.727731 0.843503 -9.200540 -3.888167 0.297984 -1.810101 -4.592759 -13.135425 14.608791 0.000000 0.000000 0.000000 2.865978 -0.186046 0.776535 -4.120386 1.876877 -1.720657 -7.989847 20.337189 -2.940422 17.058784 -6.331873 -17.769491 0.000000 0.000000 0.000000 -2.580996 -28.488485 7.662810 -24.638148 -49.136026 4.380710 31.707169 -26.985427 -9.254448 0.000000 0.000000 0.000000 10.621047 25.617112 16.595154 68.689514 67.467994 45.091504 -32.519586 15.917009 -2.784158 0.000000 0.000000 0.000000 
0.071860 0.944449 -0.005741 -1.305303 5.166687 9.934801 6.134699 -0.798408 -12.707205 3.794178 -0.640644 3.773873 -6.305676 -7.616607 8.411406 0.000000 0.000000 0.000000 -1.353297 0.841569 -8.961111 -4.585053 0.371576 -1.641569 -4.259182 -12.621034 14.440423 0.000000 0.000000 0.000000 3.027591 -0.116223 -0.328070 -3.716420 1.702906 -1.593649 -7.589180 18.537118 -2.695186 16.298710 -6.451352 -16.584045 0.000000 0.000000 0.000000 -4.360490 -24.265843 6.265388 -27.168652 -46.605482 5.424063 32.293044 -31.069448 -10.692597 0.000000 0.000000 0.000000 12.559445 20.903902 14.208956 69.460155 57.739359 36.522751 -35.697618 30.082098 -6.352422 0.000000 0.000000 0.000000 
0.074503 0.944220 -0.002651 -1.121579 5.032312 9.939855 5.910164 -0.769892 -11.861718 3.533648 -0.533407 2.737732 -6.269067 -7.606583 8.330631 0.000000 0.000000 0.000000 -2.167567 0.792972 -8.744810 -3.783826 0.295588 -1.651433 -4.222450 -12.555574 14.292884 0.000000 0.000000 0.000000 2.728924 -0.046709 -1.226063 -3.006577 1.388046 -1.373214 -7.261599 16.467610 -3.559190 15.299117 -6.976109 -13.574537 0.000000 0.000000 0.000000 -5.306653 -18.969699 4.489183 -30.826032 -43.842186 6.482653 33.225132 -38.095791 -13.484518 0.000000 0.000000 0.000000 13.150971 13.143364 9.526096 68.904202 44.655477 25.606791 -39.334016 49.714124 -12.291108 0.000000 0.000000 0.000000 
0.076930 0.943988 0.001429 -1.053460 4.891301 10.217515 5.836143 -0.766850 -11.693509 3.269643 -0.482658 2.468606 -6.158805 -7.531569 8.148605 0.000000 0.000000 0.000000 -2.420717 0.797866 -8.911104 -3.736042 0.306517 -1.420889 -4.193754 -12.511541 14.198527 0.000000 0.000000 0.000000 2.824741 0.040035 -2.711054 -2.184225 1.026521 -1.694017 -6.893970 13.758022 -3.950408 13.934245 -7.441042 -9.979481 0.000000 0.000000 0.000000 -6.424058 -12.110093 2.133615 -34.482335 -41.040301 7.218299 33.743372 -47.768800 -17.161412 0.000000 0.000000 0.000000 12.438115 5.381769 4.493521 67.083264 31.835139 15.642518 -42.048158 67.288894 -19.515478 0.000000 0.000000 0.000000 
0.079254 0.943695 0.006328 -1.258639 4.890357 10.380270 5.524696 -0.754282 -11.076910 3.988883 -0.509760 1.644010 -6.085012 -7.553599 7.887895 0.000000 0.000000 0.000000 -2.885715 0.794347 -9.093620 -2.722132 0.244792 -0.861302 -4.225853 -12.550357 14.021188 0.000000 0.000000 0.000000 3.111746 0.121465 -4.123614 -1.933872 0.920277 -1.899641 -6.018673 11.049481 -4.290370 11.863303 -6.958339 -7.298802 0.000000 0.000000 0.000000 -6.705334 -5.342643 -0.059358 -38.957536 -37.613930 7.553647 35.975250 -59.440403 -22.925893 0.000000 0.000000 0.000000 9.876705 -2.545334 -0.382856 66.089729 20.042814 8.085694 -68.836338 80.471082 -49.252141 0.000000 0.000000 0.000000 
